<svg width="37" height="37" viewBox="0 0 37 37" fill="none" xmlns="http://www.w3.org/2000/svg">
<circle cx="18.1667" cy="18.8333" r="18.1667" fill="#494949"/>
<path d="M18.1667 28.0602C17.8703 28.0602 17.5834 28.022 17.3444 27.9359C13.692 26.6834 7.88818 22.2373 7.88818 15.6686C7.88818 12.3221 10.5941 9.60669 13.9214 9.60669C15.5373 9.60669 17.048 10.2377 18.1667 11.366C19.2854 10.2377 20.7961 9.60669 22.412 9.60669C25.7393 9.60669 28.4452 12.3317 28.4452 15.6686C28.4452 22.2469 22.6414 26.6834 18.989 27.9359C18.7499 28.022 18.4631 28.0602 18.1667 28.0602ZM13.9214 11.0409C11.3877 11.0409 9.32239 13.1157 9.32239 15.6686C9.32239 22.1991 15.6042 25.8324 17.8129 26.5877C17.985 26.6451 18.3579 26.6451 18.53 26.5877C20.7291 25.8324 27.0206 22.2086 27.0206 15.6686C27.0206 13.1157 24.9553 11.0409 22.4215 11.0409C20.9682 11.0409 19.62 11.7198 18.7499 12.8958C18.4822 13.2591 17.8703 13.2591 17.6026 12.8958C16.7134 11.7102 15.3748 11.0409 13.9214 11.0409Z" fill="#F3F3F3"/>
</svg>
