<svg width="24" height="24" viewBox="0 0 24 24" fill="none" xmlns="http://www.w3.org/2000/svg">
<path d="M9.56 18.75C9.15 18.75 8.81 18.41 8.81 18V13C8.81 12.59 9.15 12.25 9.56 12.25C9.97 12.25 10.31 12.59 10.31 13V18C10.31 18.41 9.97 18.75 9.56 18.75Z" fill="#F3F3F3"/>
<path d="M12 16.25H7C6.59 16.25 6.25 15.91 6.25 15.5C6.25 15.09 6.59 14.75 7 14.75H12C12.41 14.75 12.75 15.09 12.75 15.5C12.75 15.91 12.41 16.25 12 16.25Z" fill="#F3F3F3"/>
<path d="M8 5.75C7.59 5.75 7.25 5.41 7.25 5V2C7.25 1.59 7.59 1.25 8 1.25C8.41 1.25 8.75 1.59 8.75 2V5C8.75 5.41 8.41 5.75 8 5.75Z" fill="#F3F3F3"/>
<path d="M16 5.75C15.59 5.75 15.25 5.41 15.25 5V2C15.25 1.59 15.59 1.25 16 1.25C16.41 1.25 16.75 1.59 16.75 2V5C16.75 5.41 16.41 5.75 16 5.75Z" fill="#F3F3F3"/>
<path d="M8.85 22.8099C6.38 22.8099 4.75 22.2699 3.73 21.1099C2.55 19.7799 2.36 17.7899 2.32 16.0199L2.19 9.84993C2.09 5.11993 3.66 3.14993 7.76 2.83993L15.8 2.67993C15.82 2.67993 15.83 2.67993 15.84 2.67993C19.95 2.81993 21.59 4.71993 21.69 9.45993L21.81 15.6299C21.85 17.3999 21.73 19.3999 20.61 20.7699C19.59 22.0199 17.87 22.6299 15.2 22.6899L9.2 22.8099C9.08 22.8099 8.96 22.8099 8.85 22.8099ZM15.8 4.16993L7.83 4.32993C5.03 4.54993 3.6 5.44993 3.69 9.81993L3.82 15.9899C3.86 18.1099 4.17 19.3499 4.85 20.1199C5.61 20.9799 6.98 21.3599 9.18 21.3099L15.18 21.1899C17.37 21.1499 18.73 20.7099 19.46 19.8199C20.11 19.0299 20.37 17.7799 20.32 15.6599L20.2 9.48993C20.1 5.12993 18.64 4.26993 15.8 4.16993Z" fill="#F3F3F3"/>
</svg>
