<svg width="37" height="37" viewBox="0 0 37 37" fill="none" xmlns="http://www.w3.org/2000/svg">
<circle cx="18.1667" cy="18.1667" r="18.1667" fill="#494949"/>
<path d="M18.1667 27.3934C17.8703 27.3934 17.5834 27.3552 17.3444 27.2692C13.692 26.0166 7.88818 21.5706 7.88818 15.0019C7.88818 11.6554 10.5941 8.93994 13.9214 8.93994C15.5373 8.93994 17.048 9.57099 18.1667 10.6992C19.2854 9.57099 20.7961 8.93994 22.412 8.93994C25.7393 8.93994 28.4452 11.6649 28.4452 15.0019C28.4452 21.5801 22.6414 26.0166 18.989 27.2692C18.7499 27.3552 18.4631 27.3934 18.1667 27.3934ZM13.9214 10.3742C11.3877 10.3742 9.32239 12.449 9.32239 15.0019C9.32239 21.5323 15.6042 25.1656 17.8129 25.921C17.985 25.9784 18.3579 25.9784 18.53 25.921C20.7291 25.1656 27.0206 21.5419 27.0206 15.0019C27.0206 12.449 24.9553 10.3742 22.4215 10.3742C20.9682 10.3742 19.62 11.053 18.7499 12.2291C18.4822 12.5924 17.8703 12.5924 17.6026 12.2291C16.7134 11.0435 15.3748 10.3742 13.9214 10.3742Z" fill="#F3F3F3"/>
</svg>
