<svg width="126" height="126" viewBox="0 0 126 126" fill="none" xmlns="http://www.w3.org/2000/svg">
<path d="M103 63.5C103 85.8675 84.8675 104 62.5 104C40.1325 104 22 85.8675 22 63.5C22 41.1325 40.1325 23 62.5 23C84.8675 23 103 41.1325 103 63.5Z" fill="white" fill-opacity="0.46"/>
<path d="M126 63C126 97.7939 97.7939 126 63 126C28.2061 126 0 97.7939 0 63C0 28.2061 28.2061 0 63 0C97.7939 0 126 28.2061 126 63Z" fill="white" fill-opacity="0.1"/>
<path d="M74.4395 65.8296L57.7366 75.5211C56.3191 76.3427 54.5 75.3478 54.5 73.6914V54.3084C54.5 52.6547 56.3165 51.6572 57.7366 52.4814L74.4395 62.1729C74.7619 62.357 75.03 62.6231 75.2164 62.9442C75.4028 63.2653 75.501 63.63 75.501 64.0012C75.501 64.3725 75.4028 64.7372 75.2164 65.0583C75.03 65.3794 74.7619 65.6455 74.4395 65.8296Z" fill="#272727"/>
</svg>
