<svg width="14" height="27" viewBox="0 0 14 27" fill="none" xmlns="http://www.w3.org/2000/svg">
<path d="M7.00001 22.8001C6.59168 22.8001 6.18334 22.6426 5.87418 22.3335L2.07084 18.5301C1.90168 18.361 1.90168 18.081 2.07084 17.9118C2.24001 17.7426 2.52001 17.7426 2.68918 17.9118L6.49251 21.7151C6.77251 21.9951 7.22751 21.9951 7.50751 21.7151L11.3108 17.9118C11.48 17.7426 11.76 17.7426 11.9292 17.9118C12.0983 18.081 12.0983 18.361 11.9292 18.5301L8.12585 22.3335C7.81668 22.6426 7.40835 22.8001 7.00001 22.8001Z" fill="#F3F3F3"/>
<path d="M11.62 9.21663C11.5092 9.21663 11.3983 9.1758 11.3108 9.0883L7.50751 5.28496C7.22751 5.00496 6.77251 5.00496 6.49251 5.28496L2.68918 9.0883C2.52001 9.25746 2.24001 9.25746 2.07084 9.0883C1.90168 8.91913 1.90168 8.63913 2.07084 8.46996L5.87418 4.66663C6.49251 4.0483 7.50168 4.0483 8.12585 4.66663L11.9292 8.46996C12.0983 8.63913 12.0983 8.91913 11.9292 9.0883C11.8417 9.16996 11.7308 9.21663 11.62 9.21663Z" fill="#F3F3F3"/>
</svg>
